# xmcd
#
# Track frame offsets:
#	150
#	15545
#	28612
#	42312
#	64147
#	75867
#	92450
#	106450
#	121092
#	135497
#	151055
#	168432
#	182825
#	200592
#	210957
#	225790
#	243482
#	252630
#	271322
#	281397
#
# Disc length: 4002 seconds
#
# Revision: 2
# Processed by: cddbd v1.5.2PL0 Copyright (c) Steve Scherf et al.
# Submitted via: audiograbber 1.83.01
#
DISCID=f90fa014
DTITLE=Bosse and Anita - Country-favoriter
DYEAR=1997
DGENRE=Country
TTITLE0=Inom oss finns en sång igen
TTITLE1=Jag har hört om ett land
TTITLE2=Life of a prisoner
TTITLE3=Vi möttes sent en natt
TTITLE4=En plats för vägarnas man
TTITLE5=O store Gud
TTITLE6=När jag mötte dig
TTITLE7=Lord, I've tried everything but You
TTITLE8=Guldgrävarsången
TTITLE9=En sommarkväll -67
TTITLE10=Allt skall ordna sig imorgon
TTITLE11=Ännu minns jag sången - Han har öppnat pärleporten
TTITLE12=När jag ser hamnes ljus
TTITLE13=A wonderful time up there (Gospel Boogie)
TTITLE14=Hör du tonen från himlen
TTITLE15=Help me
TTITLE16=Min gitarr
TTITLE17=För alltid din
TTITLE18=I'm just an old chunk coal
TTITLE19=I skymning blå
EXTD=
EXTT0=
EXTT1=
EXTT2=
EXTT3=
EXTT4=
EXTT5=
EXTT6=
EXTT7=
EXTT8=
EXTT9=
EXTT10=
EXTT11=
EXTT12=
EXTT13=
EXTT14=
EXTT15=
EXTT16=
EXTT17=
EXTT18=
EXTT19=
PLAYORDER=
